<svg width="35" height="35" viewBox="0 0 35 35" fill="none" xmlns="http://www.w3.org/2000/svg">
<path d="M14 19.25H1.75C1.28587 19.25 0.840752 19.4344 0.512563 19.7626C0.184374 20.0908 0 20.5359 0 21V33.25C0 33.7141 0.184374 34.1592 0.512563 34.4874C0.840752 34.8156 1.28587 35 1.75 35H14C14.4641 35 14.9092 34.8156 15.2374 34.4874C15.5656 34.1592 15.75 33.7141 15.75 33.25V21C15.75 20.5359 15.5656 20.0908 15.2374 19.7626C14.9092 19.4344 14.4641 19.25 14 19.25ZM12.25 31.5H3.5V22.75H12.25V31.5ZM33.25 0H21C20.5359 0 20.0908 0.184374 19.7626 0.512563C19.4344 0.840752 19.25 1.28587 19.25 1.75V14C19.25 14.4641 19.4344 14.9092 19.7626 15.2374C20.0908 15.5656 20.5359 15.75 21 15.75H33.25C33.7141 15.75 34.1592 15.5656 34.4874 15.2374C34.8156 14.9092 35 14.4641 35 14V1.75C35 1.28587 34.8156 0.840752 34.4874 0.512563C34.1592 0.184374 33.7141 0 33.25 0ZM31.5 12.25H22.75V3.5H31.5V12.25ZM33.25 19.25H21C20.5359 19.25 20.0908 19.4344 19.7626 19.7626C19.4344 20.0908 19.25 20.5359 19.25 21V33.25C19.25 33.7141 19.4344 34.1592 19.7626 34.4874C20.0908 34.8156 20.5359 35 21 35H33.25C33.7141 35 34.1592 34.8156 34.4874 34.4874C34.8156 34.1592 35 33.7141 35 33.25V21C35 20.5359 34.8156 20.0908 34.4874 19.7626C34.1592 19.4344 33.7141 19.25 33.25 19.25ZM31.5 31.5H22.75V22.75H31.5V31.5ZM14 0H1.75C1.28587 0 0.840752 0.184374 0.512563 0.512563C0.184374 0.840752 0 1.28587 0 1.75V14C0 14.4641 0.184374 14.9092 0.512563 15.2374C0.840752 15.5656 1.28587 15.75 1.75 15.75H14C14.4641 15.75 14.9092 15.5656 15.2374 15.2374C15.5656 14.9092 15.75 14.4641 15.75 14V1.75C15.75 1.28587 15.5656 0.840752 15.2374 0.512563C14.9092 0.184374 14.4641 0 14 0ZM12.25 12.25H3.5V3.5H12.25V12.25Z" fill="#FECDD3"/>
</svg>
